<svg width="95" height="94" viewBox="0 0 95 94" fill="none" xmlns="http://www.w3.org/2000/svg">
<g clip-path="url(#clip0_379_6263)">
<path d="M23.1192 45.8103C22.752 45.825 22.4436 46.1334 22.4289 46.5006C22.3995 46.9266 21.9589 55.8125 26.512 62.5834C24.5879 62.4366 23.2661 62.4953 23.1192 62.51C22.752 62.5247 22.4436 62.8331 22.4289 63.2003C22.3995 63.685 21.8267 75.0825 28.6564 81.8975C34.3845 87.6403 43.3586 88.1397 46.3548 88.1397C46.9276 88.1397 47.2801 88.125 47.3536 88.1103C47.4123 88.1103 47.4711 88.0809 47.5151 88.0662C47.5739 88.0809 47.6179 88.1103 47.6767 88.1103C47.7501 88.1103 48.1026 88.1397 48.6754 88.1397C51.6717 88.1397 60.6458 87.6256 66.3739 81.8975C73.1889 75.0825 72.6161 63.685 72.6014 63.2003C72.5867 62.8331 72.2783 62.5247 71.9111 62.51C71.7495 62.51 70.4423 62.4366 68.5183 62.5834C73.0714 55.8125 72.6308 46.9266 72.6014 46.5006C72.5867 46.1334 72.2783 45.825 71.9111 45.8103C71.7495 45.8103 70.3101 45.7369 68.2245 45.9131C71.5145 41.2866 72.3664 35.5731 72.5573 32.2391C72.5867 32.1509 72.6161 32.0628 72.6161 31.96V30.785C72.6161 30.5206 72.6161 30.2856 72.6161 30.0947V6.60938C72.6161 6.19813 72.2929 5.875 71.8817 5.875C71.4704 5.875 71.1473 6.19813 71.1473 6.60938V28.7141C70.2367 28.7141 68.5623 28.7434 66.5208 29.0225V6.60938C66.5208 6.19813 66.1976 5.875 65.7864 5.875C65.3751 5.875 65.052 6.19813 65.052 6.60938V29.2575C63.5979 29.5219 62.0264 29.9184 60.4254 30.5059V6.60938C60.4254 6.19813 60.1023 5.875 59.6911 5.875C59.2798 5.875 58.9567 6.19813 58.9567 6.60938V31.0934C58.0608 31.49 57.1795 31.9747 56.3129 32.5034C56.4892 31.5047 56.6067 30.4912 56.6067 29.4484C56.6067 26.1878 55.6373 23.1622 54.3301 20.5625V6.60938C54.3301 6.19813 54.007 5.875 53.5958 5.875C53.1845 5.875 52.8614 6.19813 52.8614 6.60938V17.9775C51.0548 15.1575 49.1161 13.1159 48.2348 12.2787V6.62406C48.2348 6.21281 47.9117 5.88969 47.5004 5.88969C47.0892 5.88969 46.7661 6.21281 46.7661 6.62406V11.8822C46.487 12.1319 44.2839 14.1588 42.1395 17.3313V6.62406C42.1395 6.21281 41.8164 5.88969 41.4051 5.88969C40.9939 5.88969 40.6708 6.21281 40.6708 6.62406V19.7253C39.1579 22.5013 37.9683 25.8353 37.9683 29.4631C37.9683 30.4178 38.0711 31.3431 38.2179 32.2391C37.5129 31.8131 36.7786 31.4312 36.0442 31.1081V6.60938C36.0442 6.19813 35.7211 5.875 35.3098 5.875C34.8986 5.875 34.5754 6.19813 34.5754 6.60938V30.5059C32.9892 29.9184 31.4176 29.5219 29.9489 29.2575V6.60938C29.9489 6.19813 29.6258 5.875 29.2145 5.875C28.8033 5.875 28.4801 6.19813 28.4801 6.60938V29.0372C26.4386 28.7581 24.7789 28.7141 23.8536 28.7287V6.60938C23.8536 6.19813 23.5304 5.875 23.1192 5.875C22.7079 5.875 22.3848 6.19813 22.3848 6.60938V29.4631C22.3848 29.6247 22.3408 30.3591 22.3848 31.49V31.9453C22.3848 31.9453 22.3995 32.0481 22.4142 32.0922C22.5904 35.4116 23.4276 41.2131 26.7617 45.8984C24.6908 45.7222 23.2367 45.7809 23.0751 45.7956L23.1192 45.8103ZM46.5017 86.6562C43.8873 86.6562 35.0748 86.2303 29.6845 80.8547C24.2354 75.4203 23.8683 66.4756 23.8829 63.9641H23.9564C26.5708 63.9641 35.3833 64.39 40.7736 69.7656C46.2226 75.2 46.5898 84.1447 46.5751 86.6562H46.5017ZM47.5004 80.5316C46.9717 77.6528 45.9289 74.2894 43.9461 71.3225C44.9301 71.3959 45.7526 71.4253 46.3401 71.4253C46.9276 71.4253 47.2654 71.4106 47.3389 71.3959C47.3976 71.3959 47.4564 71.3666 47.5004 71.3519C47.5592 71.3666 47.6033 71.3959 47.662 71.3959C47.7354 71.3959 48.0879 71.4253 48.6608 71.4253C49.2336 71.4253 50.0708 71.4106 51.0548 71.3225C49.072 74.2894 48.0292 77.6381 47.5004 80.5316ZM43.6523 54.2409C44.7539 54.3291 45.6939 54.3584 46.3401 54.3584C46.9129 54.3584 47.2654 54.3438 47.3389 54.3291C47.3976 54.3291 47.4564 54.2997 47.5004 54.285C47.5592 54.2997 47.6033 54.3291 47.662 54.3291C47.7354 54.3291 48.0879 54.3584 48.6608 54.3584C49.307 54.3584 50.2323 54.3291 51.3486 54.2409C49.1748 57.2959 48.0586 60.8209 47.5004 63.8319C46.9423 60.8209 45.8261 57.2959 43.6523 54.2409ZM71.1326 63.9494C71.1326 66.4609 70.7801 75.3909 65.3311 80.84C59.8967 86.2744 51.0108 86.6269 48.4404 86.6416C48.4404 84.13 48.7929 75.2 54.242 69.7509C59.6764 64.3166 68.6358 63.9494 71.1326 63.9494ZM71.1326 47.2497C71.1326 49.5703 70.8242 57.3106 66.5208 62.7891C62.5258 63.3325 57.1208 64.8159 53.1992 68.7228C52.8761 69.0459 52.5823 69.3838 52.3033 69.7216C50.6142 69.9272 49.2189 69.9566 48.4404 69.9566C48.4404 67.445 48.7929 58.515 54.242 53.0659C59.6764 47.6316 68.6358 47.2791 71.1326 47.2644V47.2497ZM71.1326 30.1975C71.1326 32.5769 70.8095 40.655 66.1976 46.1481C62.232 46.7356 57.0033 48.2337 53.2139 52.0378C53.0229 52.2288 52.8614 52.4197 52.6851 52.6253C50.8639 52.8603 49.3658 52.9191 48.5139 52.9191H48.4404C48.4404 50.4075 48.7929 41.4775 54.242 36.0284C59.6764 30.5941 68.5917 30.2269 71.1326 30.2269V30.1975ZM47.2948 13.395C49.0867 15.1722 55.1379 21.7375 55.1379 29.4484C55.1379 30.9319 54.9029 32.3859 54.5358 33.7519C54.0804 34.1191 53.6251 34.5156 53.1992 34.9416C50.3204 37.8203 48.7783 41.4922 47.9264 44.8409C47.6914 45.0906 47.4711 45.3256 47.2948 45.4872C47.2801 45.4725 47.2361 45.4284 47.2214 45.4137C46.4136 41.9328 44.8567 37.9819 41.8017 34.9416C41.2142 34.3541 40.5973 33.8547 39.9658 33.37C39.6426 32.1069 39.4517 30.785 39.4517 29.4338C39.4517 21.7375 45.5029 15.1575 47.2948 13.3803V13.395ZM23.8683 30.1975C26.3945 30.1681 35.3098 30.55 40.7589 35.9991C46.2079 41.4334 46.5751 50.3781 46.5604 52.8897C45.7526 52.9044 44.2104 52.875 42.3304 52.6253C42.1542 52.4197 41.9779 52.2141 41.787 52.0231C37.9829 48.2191 32.7542 46.7209 28.8033 46.1334C24.1914 40.655 23.8536 32.5622 23.8683 30.1975ZM40.7736 53.0659C46.2226 58.5003 46.5898 67.445 46.5751 69.9566H46.5017C45.7086 69.9566 44.3573 69.9125 42.7123 69.7216C42.4186 69.3838 42.1395 69.0459 41.8164 68.7228C37.9095 64.8159 32.5045 63.3325 28.4948 62.7891C24.1914 57.3253 23.8683 49.5703 23.8829 47.2497H23.9564C26.5708 47.2497 35.3833 47.6756 40.7736 53.0512V53.0659Z" fill="black"/>
</g>
<defs>
<clipPath id="clip0_379_6263">
<rect width="94" height="94" fill="white" transform="translate(0.5)"/>
</clipPath>
</defs>
</svg>
