<svg width="94" height="94" viewBox="0 0 94 94" fill="none" xmlns="http://www.w3.org/2000/svg">
<g clip-path="url(#clip0_379_6275)">
<path d="M14.9076 87.5522H28.4788C30.7407 87.5522 32.6795 86.2891 33.7076 84.4531C34.7651 86.6122 36.9682 88.125 39.5385 88.125H54.4023C56.9873 88.125 59.2198 86.5975 60.2626 84.4091C61.2907 86.2744 63.2441 87.5669 65.5207 87.5669H79.092C82.4113 87.5669 85.1138 84.8644 85.1138 81.545V50.3047C85.1138 46.9853 82.4113 44.2828 79.092 44.2828C78.9745 44.2828 78.9157 44.2241 78.8863 44.18C78.857 44.1359 78.8276 44.0625 78.857 43.9744C79.7676 41.4334 80.2376 38.4519 80.2376 35.3528C80.2376 32.2537 79.7823 29.3897 78.9157 26.8928C78.0345 24.3372 77.5791 21.6053 77.5351 18.7706C78.7248 18.4181 79.5913 17.3459 79.5913 16.0534V15.1722C79.5913 13.6006 78.3135 12.3228 76.742 12.3228H67.8707C66.2991 12.3228 65.0213 13.6006 65.0213 15.1722V16.0534C65.0213 17.3459 65.8879 18.4328 67.0776 18.7706C67.0335 21.6053 66.5782 24.3372 65.697 26.8928C64.8304 29.3897 64.3751 32.3125 64.3751 35.3528C64.3751 38.3931 64.8451 41.4334 65.7557 43.9744C65.7851 44.0625 65.7557 44.1359 65.7263 44.18C65.697 44.2241 65.6382 44.2828 65.5207 44.2828C63.6113 44.2828 61.937 45.1934 60.8354 46.5741C60.4241 43.3722 57.707 40.89 54.4023 40.89C54.2407 40.89 54.1526 40.7872 54.1232 40.7431C54.0938 40.6844 54.0351 40.5816 54.0791 40.4494C55.0632 37.6734 55.592 34.4128 55.592 31.0347C55.592 27.6566 55.0926 24.5281 54.1526 21.7963C53.1685 18.9469 52.6691 15.8919 52.6398 12.7047C53.9616 12.1906 54.9016 10.9128 54.9016 9.41469C54.9016 7.46125 53.3154 5.875 51.362 5.875H42.6082C40.6548 5.875 39.0685 7.46125 39.0685 9.41469C39.0685 10.9128 40.0085 12.1906 41.3304 12.7047C41.301 15.8772 40.8016 18.9469 39.8176 21.7963C38.8776 24.5281 38.3782 27.7153 38.3782 31.0347C38.3782 34.3541 38.8923 37.6734 39.891 40.4494C39.9351 40.5816 39.891 40.6991 39.847 40.7431C39.8176 40.7872 39.7295 40.89 39.5679 40.89C36.2779 40.89 33.5754 43.3428 33.1348 46.53C32.0332 45.1787 30.3735 44.2975 28.4935 44.2975C28.376 44.2975 28.3173 44.2241 28.2879 44.1947C28.2585 44.1506 28.2291 44.0772 28.2585 43.9891C29.1691 41.4481 29.6391 38.4666 29.6391 35.3675C29.6391 32.2684 29.1838 29.4044 28.3173 26.9075C27.436 24.3519 26.9807 21.62 26.9366 18.7853C28.1263 18.4328 28.9929 17.3606 28.9929 16.0681V15.1869C28.9929 13.6153 27.7151 12.3375 26.1435 12.3375H17.2723C15.7007 12.3375 14.4229 13.6153 14.4229 15.1869V16.0681C14.4229 17.3606 15.2895 18.4475 16.4791 18.7853C16.4351 21.62 15.9798 24.3519 15.0985 26.9075C14.232 29.4044 13.7766 32.3272 13.7766 35.3675C13.7766 38.4078 14.2466 41.4481 15.1573 43.9891C15.1866 44.0772 15.1573 44.1506 15.1279 44.1947C15.0985 44.2388 15.0398 44.2975 14.9223 44.2975C11.6029 44.2975 8.90039 47 8.90039 50.3194V81.5597C8.90039 84.8791 11.6029 87.5816 14.9223 87.5816L14.9076 87.5522ZM66.4901 16.0387V15.1575C66.4901 14.3937 67.107 13.7769 67.8707 13.7769H76.742C77.5057 13.7769 78.1226 14.3937 78.1226 15.1575V16.0387C78.1226 16.8025 77.5057 17.4194 76.742 17.4194H67.8707C67.107 17.4194 66.4901 16.8025 66.4901 16.0387ZM60.9823 50.3047C60.9823 47.7931 63.0238 45.7516 65.5354 45.7516C66.0935 45.7516 66.6223 45.4725 66.9454 45.0172C67.2685 44.5619 67.342 43.9891 67.151 43.475C66.2991 41.0956 65.8585 38.2756 65.8585 35.3528C65.8585 32.43 66.2845 29.7128 67.0923 27.3775C68.0176 24.7044 68.5023 21.8697 68.561 18.9028H76.0663C76.1251 21.855 76.6098 24.7044 77.5351 27.3775C78.3429 29.7275 78.7688 32.4741 78.7688 35.3528C78.7688 38.2316 78.3282 41.0956 77.4763 43.4897C77.3001 44.0037 77.3735 44.5913 77.6966 45.0466C78.0198 45.5019 78.5485 45.7663 79.1066 45.7663C81.6182 45.7663 83.6598 47.8078 83.6598 50.3194V53.2569H80.267C78.5926 53.2569 76.9182 52.4491 75.7138 51.0537C73.6723 48.7037 70.9845 48.7037 68.9429 51.0537C67.7238 52.4491 66.0641 53.2569 64.3751 53.2569H60.9823V50.3194V50.3047ZM60.9823 54.6963H64.3751C66.4754 54.6963 68.5463 53.7122 70.0445 51.9938C71.5279 50.29 73.0995 50.29 74.5976 51.9938C76.0957 53.7122 78.1666 54.6963 80.267 54.6963H83.6598V77.3737H80.267C78.1666 77.3737 76.0957 78.3578 74.5976 80.0762C73.1141 81.78 71.5426 81.78 70.0445 80.0762C68.5463 78.3578 66.4754 77.3737 64.3751 77.3737H60.9823V54.6963ZM60.9823 78.8425H64.3751C66.0495 78.8425 67.7238 79.6503 68.9429 81.0456C69.9563 82.2206 71.1313 82.8375 72.321 82.8375C73.5107 82.8375 74.6857 82.2206 75.6991 81.0456C76.9182 79.6503 78.5779 78.8425 80.267 78.8425H83.6598V81.545C83.6598 84.0566 81.6182 86.0981 79.1066 86.0981H65.5354C63.0238 86.0981 60.9823 84.0566 60.9823 81.545V78.8425ZM40.5373 9.41469C40.5373 8.26906 41.4626 7.34375 42.6082 7.34375H51.362C52.5076 7.34375 53.4329 8.26906 53.4329 9.41469C53.4329 10.5603 52.5076 11.4856 51.362 11.4856H42.6082C41.4626 11.4856 40.5373 10.5603 40.5373 9.41469ZM34.486 50.3047V47.4112C34.486 44.6206 36.7479 42.3587 39.5385 42.3587C40.126 42.3587 40.6841 42.065 41.022 41.595C41.3598 41.125 41.4479 40.5081 41.2423 39.9647C40.317 37.3503 39.8176 34.2659 39.8176 31.0347C39.8176 27.8034 40.2876 24.8512 41.1688 22.2663C42.1823 19.3287 42.7257 16.2003 42.7698 12.9397H51.127C51.1857 16.2003 51.7145 19.3287 52.7279 22.2663C53.6238 24.8366 54.0938 27.8769 54.0938 31.0347C54.0938 34.1925 53.6091 37.3356 52.6691 39.9647C52.4782 40.5081 52.5663 41.125 52.8895 41.595C53.2273 42.0797 53.7854 42.3587 54.3729 42.3587C57.1635 42.3587 59.4254 44.6206 59.4254 47.4112V50.6866H55.636C53.7413 50.6866 51.9641 49.82 50.5835 48.2484C48.3804 45.7075 45.487 45.7075 43.2838 48.2484C41.9179 49.82 40.126 50.6866 38.2313 50.6866H34.442V50.3047H34.486ZM34.486 53.9619V52.1406H38.2754C40.5666 52.1406 42.7991 51.0684 44.4295 49.2031C46.0891 47.2938 47.8663 47.3084 49.5113 49.2031C51.1416 51.0684 53.3741 52.1406 55.6654 52.1406H59.4548V77.0947H55.6654C53.3741 77.0947 51.1416 78.1669 49.5113 80.0322C47.8663 81.9416 46.0891 81.9416 44.4295 80.0322C42.7991 78.1669 40.5666 77.0947 38.2754 77.0947H34.486V53.9472V53.9619ZM34.486 81.545V78.5928H38.2754C40.1701 78.5928 41.9473 79.4594 43.3279 81.0309C44.4295 82.2941 45.6926 82.9697 46.9704 82.9697C48.2482 82.9697 49.526 82.2941 50.6276 81.0309C51.9935 79.4594 53.7854 78.5928 55.6801 78.5928H59.4695V81.6184C59.4695 84.4091 57.2076 86.6709 54.417 86.6709H39.5532C36.7626 86.6709 34.5007 84.4091 34.5007 81.5597L34.486 81.545ZM15.8623 16.0387V15.1575C15.8623 14.3937 16.4791 13.7769 17.2429 13.7769H26.1141C26.8779 13.7769 27.4948 14.3937 27.4948 15.1575V16.0387C27.4948 16.8025 26.8779 17.4194 26.1141 17.4194H17.2429C16.4791 17.4194 15.8623 16.8025 15.8623 16.0387ZM10.3545 50.3047C10.3545 47.7931 12.396 45.7516 14.9076 45.7516C15.4657 45.7516 15.9945 45.4725 16.3176 45.0319C16.6407 44.5766 16.7141 44.0037 16.5379 43.475C15.686 41.0956 15.2454 38.2756 15.2454 35.3528C15.2454 32.43 15.6713 29.7128 16.4791 27.3775C17.4045 24.7044 17.8891 21.8697 17.9479 18.9028H25.4532C25.512 21.855 25.9966 24.7044 26.922 27.3775C27.7298 29.7275 28.1557 32.4887 28.1557 35.3528C28.1557 38.2169 27.7151 41.0956 26.8632 43.475C26.6723 43.9891 26.7604 44.5766 27.0688 45.0319C27.392 45.4872 27.9207 45.7663 28.4788 45.7663C30.9904 45.7663 33.032 47.8078 33.032 50.3194V53.2569H29.6391C27.9648 53.2569 26.2904 52.4491 25.0713 51.0537C23.0298 48.7037 20.342 48.7037 18.3151 51.0537C17.096 52.4491 15.4363 53.2569 13.7473 53.2569H10.3545V50.3194V50.3047ZM10.3545 54.6963H13.7473C15.8476 54.6963 17.9185 53.7122 19.4166 51.9791C20.9001 50.2753 22.4716 50.2753 23.9698 51.9791C25.4679 53.6975 27.5388 54.6816 29.6391 54.6816H33.032V77.3591H29.6391C27.5388 77.3591 25.4679 78.3431 23.9698 80.0616C22.4863 81.7653 20.9148 81.7653 19.4166 80.0616C17.9185 78.3431 15.8476 77.3591 13.7473 77.3591H10.3545V54.6816V54.6963ZM10.3545 78.8425H13.7473C15.4216 78.8425 17.096 79.6503 18.3151 81.0456C19.3285 82.2206 20.5035 82.8375 21.6932 82.8375C22.8829 82.8375 24.0579 82.2206 25.0713 81.0456C26.2904 79.6503 27.9501 78.8425 29.6391 78.8425H33.032V81.545C33.032 84.0566 30.9904 86.0981 28.4788 86.0981H14.9076C12.396 86.0981 10.3545 84.0566 10.3545 81.545V78.8425Z" fill="black"/>
</g>
<defs>
<clipPath id="clip0_379_6275">
<rect width="94" height="94" fill="white"/>
</clipPath>
</defs>
</svg>
