<svg width="95" height="94" viewBox="0 0 95 94" fill="none" xmlns="http://www.w3.org/2000/svg">
<g clip-path="url(#clip0_379_6245)">
<path d="M71.7638 29.14V6.60938C71.7638 6.19813 71.4407 5.875 71.0294 5.875H59.7641C59.3529 5.875 59.0297 6.19813 59.0297 6.60938V18.9028L47.9554 10.0022C47.691 9.78187 47.3091 9.78187 47.0301 10.0022L7.96131 41.4041C7.72631 41.595 7.6235 41.9328 7.72631 42.2266C7.82912 42.5203 8.10818 42.7113 8.41662 42.7113H16.1863V87.3906C16.1863 87.8019 16.5094 88.125 16.9207 88.125H78.0794C78.4907 88.125 78.8138 87.8019 78.8138 87.3906V42.7113H86.5835C86.8919 42.7113 87.171 42.5203 87.2738 42.2266C87.3766 41.9328 87.2738 41.6097 87.0388 41.4041L71.7638 29.14ZM78.0794 41.2425C77.6682 41.2425 77.3451 41.5656 77.3451 41.9769V86.6562H17.6551V41.9769C17.6551 41.5656 17.3319 41.2425 16.9207 41.2425H10.5022L28.421 26.8488L47.5001 11.515L59.3088 21.0031C59.5291 21.1794 59.8376 21.2087 60.0872 21.0912C60.3369 20.9737 60.4985 20.7094 60.4985 20.4303V7.34375H70.2951V29.4925C70.2951 29.7128 70.3979 29.9184 70.5741 30.0653L84.4979 41.2572H78.0794V41.2425Z" fill="black"/>
<path d="M59.8818 48.41H57.0764L56.8268 44.0038C56.8121 43.6072 56.5036 43.2694 56.0483 43.3134C55.6371 43.3428 55.3286 43.6806 55.358 44.0919L57.0911 74.8328L53.8746 75.9197C47.9702 77.9172 41.4636 77.9172 35.5446 75.9197L32.328 74.8328L34.0611 44.0919C34.0905 43.6806 33.7674 43.3428 33.3708 43.3134C32.9302 43.2694 32.6218 43.6072 32.5924 44.0038L30.8152 75.3028C30.8005 75.6259 31.0061 75.9344 31.3146 76.0372L35.0599 77.3003C38.1736 78.3431 41.4343 78.8719 44.6949 78.8719C47.9555 78.8719 51.2161 78.3431 54.3299 77.3003L58.0752 76.0372C58.3836 75.9344 58.5893 75.6259 58.5746 75.3028L58.3396 71.0288H59.8671C64.3174 71.0288 67.9452 67.4009 67.9452 62.9506V56.4734C67.9452 52.0231 64.3174 48.3953 59.8671 48.3953L59.8818 48.41ZM66.4911 62.9506C66.4911 66.5931 63.5243 69.56 59.8818 69.56H58.2808L57.1646 49.8641H59.8818C63.5243 49.8641 66.4911 52.8309 66.4911 56.4734V62.9506Z" fill="black"/>
<path d="M34.0166 40.4639C34.3985 40.5227 34.751 40.2877 34.8538 39.9205C35.6616 36.7773 38.4963 34.5742 41.7422 34.5742C44.2538 34.5742 46.5304 35.8667 47.8229 38.0258C47.955 38.2461 48.19 38.393 48.4691 38.3783C48.7335 38.3783 48.9685 38.2314 49.1007 37.9964C49.9966 36.3367 51.7297 35.2939 53.6244 35.2939C56.4591 35.2939 58.7504 37.5998 58.7504 40.4198C58.7504 40.8311 59.0735 41.1542 59.4847 41.1542C59.896 41.1542 60.2191 40.8311 60.2191 40.4198C60.2191 36.7773 57.2522 33.8252 53.6244 33.8252C51.5828 33.8252 49.6882 34.7652 48.4397 36.3367C46.8241 34.2952 44.386 33.1055 41.7422 33.1055C38.041 33.1055 34.795 35.4702 33.62 38.9364C33.4879 38.9364 33.3557 38.9364 33.2235 38.9364C29.816 38.9364 27.04 41.7123 27.04 45.1198C27.04 45.5311 27.3632 45.8542 27.7744 45.8542C28.1857 45.8542 28.5088 45.5311 28.5088 45.1198C28.5088 42.5202 30.6238 40.4052 33.2235 40.4052C33.4879 40.4052 33.7669 40.4345 34.0166 40.4786V40.4639Z" fill="black"/>
<path d="M38.7168 44.0479V71.8513C38.7168 72.2625 39.0399 72.5857 39.4512 72.5857C39.8624 72.5857 40.1855 72.2625 40.1855 71.8513V44.0479C40.1855 43.6366 39.8624 43.3135 39.4512 43.3135C39.0399 43.3135 38.7168 43.6366 38.7168 44.0479Z" fill="black"/>
<path d="M44.3418 44.0479V71.8513C44.3418 72.2625 44.6649 72.5857 45.0762 72.5857C45.4874 72.5857 45.8105 72.2625 45.8105 71.8513V44.0479C45.8105 43.6366 45.4874 43.3135 45.0762 43.3135C44.6649 43.3135 44.3418 43.6366 44.3418 44.0479Z" fill="black"/>
<path d="M49.9824 44.0479V71.8513C49.9824 72.2625 50.3055 72.5857 50.7168 72.5857C51.128 72.5857 51.4512 72.2625 51.4512 71.8513V44.0479C51.4512 43.6366 51.128 43.3135 50.7168 43.3135C50.3055 43.3135 49.9824 43.6366 49.9824 44.0479Z" fill="black"/>
</g>
<defs>
<clipPath id="clip0_379_6245">
<rect width="94" height="94" fill="white" transform="translate(0.5)"/>
</clipPath>
</defs>
</svg>
