<svg width="94" height="94" viewBox="0 0 94 94" fill="none" xmlns="http://www.w3.org/2000/svg">
<g clip-path="url(#clip0_379_6269)">
<path d="M87.6257 17.6106C84.7175 16.5972 81.6038 15.7453 78.3872 15.0256C77.9613 13.2925 76.4044 12 74.5538 12H74.0838C72.7619 12 71.6016 12.6609 70.8819 13.645C65.6678 12.8959 60.2188 12.4994 54.6375 12.4994C48.6303 12.4994 42.77 12.94 37.2182 13.8066C36.5132 12.7197 35.2941 12 33.8988 12H33.4288C31.4607 12 29.845 13.4394 29.5366 15.3194C26.79 15.9803 24.1463 16.7294 21.6347 17.6106C21.341 17.7134 21.15 17.9925 21.15 18.3009V47.0003H13.5272V39.4803H17.6838C18.095 39.4803 18.4182 39.1572 18.4182 38.7459C18.4182 38.3347 18.095 38.0116 17.6838 38.0116H8.13691C7.72566 38.0116 7.40254 38.3347 7.40254 38.7459C7.40254 39.1572 7.72566 39.4803 8.13691 39.4803H12.0438V47.0003H6.59473C6.18348 47.0003 5.86035 47.3234 5.86035 47.7347V55.9156C5.86035 56.3269 6.18348 56.65 6.59473 56.65C7.00598 56.65 7.3291 56.3269 7.3291 55.9156V48.4691H21.15V59.1763C21.15 59.4847 21.341 59.7637 21.6347 59.8666C23.0007 60.3366 24.4107 60.7772 25.85 61.1884V76.5222C25.85 79.5331 28.3029 81.9859 31.3138 81.9859H40.42C40.7285 81.9859 40.9929 81.795 41.1104 81.5159C42.8435 76.9334 48.7038 73.7316 55.3572 73.7316C62.0107 73.7316 67.871 76.9334 69.6041 81.5159C69.7069 81.795 69.986 81.9859 70.2944 81.9859H77.9319C80.9428 81.9859 83.3957 79.5331 83.3957 76.5222V61.2031C84.835 60.7919 86.245 60.3512 87.611 59.8812C87.9047 59.7784 88.1104 59.4994 88.1104 59.1909V18.3009C88.1104 17.9925 87.9194 17.7134 87.611 17.6106H87.6257ZM71.6163 15.9656C71.6163 14.5997 72.7325 13.4834 74.0985 13.4834H74.5685C75.9344 13.4834 77.0507 14.5997 77.0507 15.9656V61.5409C77.0507 62.9069 75.9344 64.0231 74.5685 64.0231H74.0985C72.7325 64.0231 71.6163 62.9069 71.6163 61.5409V15.9656ZM54.6522 13.9828C60.0132 13.9828 65.2566 14.35 70.265 15.055C70.1916 15.3487 70.1475 15.6572 70.1475 15.9656V21.2531C65.1685 20.5775 59.9691 20.2103 54.6522 20.2103C48.8653 20.2103 43.24 20.6363 37.8644 21.4294V15.9803C37.8644 15.7306 37.835 15.4809 37.791 15.2312C43.1666 14.4234 48.836 13.9975 54.6522 13.9975V13.9828ZM54.6522 44.1216C48.8653 44.1216 43.2254 44.0187 37.8644 43.8278V32.9884C43.2254 32.6947 48.8653 32.5331 54.6522 32.5331C59.9691 32.5331 65.1685 32.6653 70.1475 32.915V43.8572C65.1685 44.0187 59.9838 44.1069 54.6522 44.1069V44.1216ZM70.1475 45.3406V54.2706C65.1685 54.8728 59.9838 55.1959 54.6522 55.1959C48.8653 55.1959 43.2254 54.8287 37.8644 54.1237V45.3112C43.2254 45.5022 48.8653 45.605 54.6522 45.605C59.9691 45.605 65.1685 45.5169 70.1475 45.3553V45.3406ZM54.6522 31.0791C48.8653 31.0791 43.2254 31.2406 37.8644 31.5344V22.8981C43.2254 22.0903 48.8653 21.6644 54.6522 21.6644C59.9838 21.6644 65.1685 22.0316 70.1475 22.7219V31.4609C65.1685 31.2113 59.9838 31.0791 54.6522 31.0791ZM37.8644 61.5409V55.5925C43.2254 56.2828 48.8653 56.65 54.6522 56.65C59.9691 56.65 65.1685 56.3269 70.1475 55.7394V61.5263C70.1475 61.8347 70.1916 62.1431 70.265 62.4369C65.2566 63.1272 60.0278 63.5091 54.6522 63.5091C48.836 63.5091 43.1666 63.0978 37.791 62.2753C37.835 62.0256 37.8644 61.7906 37.8644 61.5263V61.5409ZM30.9613 15.9656C30.9613 14.5997 32.0775 13.4834 33.4435 13.4834H33.9135C35.2794 13.4834 36.3957 14.5997 36.3957 15.9656V61.5409C36.3957 62.9069 35.2794 64.0231 33.9135 64.0231H33.4435C32.0775 64.0231 30.9613 62.9069 30.9613 61.5409V15.9656ZM22.6335 18.8297C24.8219 18.0806 27.1279 17.4197 29.4925 16.8469V23.0156C27.1132 23.5884 24.8366 24.2494 22.6335 24.9838V18.8297ZM22.6335 26.5259C24.8366 25.7769 27.1132 25.1013 29.4925 24.5284V32.1219C27.1132 32.3275 24.8366 32.5772 22.6335 32.8563V26.5259ZM22.6335 34.3397C24.8366 34.0606 27.1132 33.8109 29.4925 33.6053V43.4459C27.1132 43.3137 24.8366 43.1522 22.6335 42.9759V34.3397ZM22.6335 44.4447C24.8366 44.6209 27.1132 44.7825 29.4925 44.9147V52.6844C27.1132 52.185 24.8366 51.5828 22.6335 50.9366V44.4447ZM22.6335 58.6622V52.4641C24.8366 53.1103 27.1132 53.6831 29.4925 54.1825V60.645C27.1279 60.0722 24.8219 59.4112 22.6335 58.6622ZM81.9416 76.5369C81.9416 78.74 80.1497 80.5319 77.9466 80.5319H70.7938C68.6494 75.6409 62.3925 72.2775 55.3572 72.2775C48.3219 72.2775 42.0797 75.6409 39.9207 80.5319H31.2991C29.096 80.5319 27.3041 78.74 27.3041 76.5369V61.5997C28.0385 61.7906 28.7729 61.9963 29.5219 62.1725C29.8304 64.0525 31.446 65.4919 33.4141 65.4919H33.8841C35.2794 65.4919 36.4985 64.7722 37.2035 63.6853C42.7554 64.5519 48.6157 64.9925 54.6228 64.9925C60.2041 64.9925 65.6679 64.5959 70.8672 63.8469C71.5869 64.8456 72.7472 65.4919 74.0691 65.4919H74.5391C76.3897 65.4919 77.9466 64.1994 78.3725 62.4663C79.5769 62.2019 80.7519 61.9081 81.9122 61.5997V76.5222L81.9416 76.5369ZM86.6563 58.6769C84.0713 59.5581 81.3394 60.3072 78.5194 60.9534V54.4469C81.3394 53.8887 84.0566 53.2425 86.6563 52.4934V58.6916V58.6769ZM86.6563 50.9512C84.0713 51.715 81.3541 52.3759 78.5194 52.9341V44.9734C81.3394 44.8266 84.0566 44.6356 86.6563 44.43V50.9366V50.9512ZM86.6563 42.9759C84.0713 43.1816 81.3394 43.3578 78.5194 43.5194V33.5025C81.3394 33.7375 84.0713 34.0166 86.6563 34.3397V42.9759ZM86.6563 32.8563C84.0713 32.5331 81.3394 32.2541 78.5194 32.0191V24.2347C81.3394 24.8809 84.0713 25.63 86.6563 26.5112V32.8416V32.8563ZM86.6563 24.9838C84.0713 24.1172 81.3394 23.3828 78.5194 22.7366V16.5531C81.3394 17.1994 84.0713 17.9484 86.6563 18.8297V24.9838Z" fill="black"/>
</g>
<defs>
<clipPath id="clip0_379_6269">
<rect width="94" height="94" fill="white"/>
</clipPath>
</defs>
</svg>
