<?xml version="1.0" encoding="UTF-8"?>
<svg id="Layer_2" xmlns="http://www.w3.org/2000/svg" viewBox="0 0 496 512">
  <defs>
    <style>
      .cls-1 {
        fill: #fff;
      }
    </style>
  </defs>
  <g id="Layer_1-2" data-name="Layer_1">
    <path class="cls-1" d="M0,64C0,28.7,28.7,0,64,0h160v128c0,17.7,14.3,32,32,32h128v144h-208c-35.3,0-64,28.7-64,64v144h-48c-35.3,0-64-28.7-64-64V64ZM384,128h-128V0l128,128ZM176,352h32c30.9,0,56,25.1,56,56s-25.1,56-56,56h-16v32c0,8.8-7.2,16-16,16s-16-7.2-16-16v-128c0-8.8,7.2-16,16-16ZM208,432c13.3,0,24-10.7,24-24s-10.7-24-24-24h-16v48h16ZM304,352h32c26.5,0,48,21.5,48,48v64c0,26.5-21.5,48-48,48h-32c-8.8,0-16-7.2-16-16v-128c0-8.8,7.2-16,16-16ZM336,480c8.8,0,16-7.2,16-16v-64c0-8.8-7.2-16-16-16h-16v96h16ZM416,368c0-8.8,7.2-16,16-16h48c8.8,0,16,7.2,16,16s-7.2,16-16,16h-32v32h32c8.8,0,16,7.2,16,16s-7.2,16-16,16h-32v48c0,8.8-7.2,16-16,16s-16-7.2-16-16v-128Z"/>
  </g>
</svg>