<svg width="35" height="35" viewBox="0 0 35 35" fill="none" xmlns="http://www.w3.org/2000/svg">
<path d="M19.9307 4.83398C20.0153 4.83398 20.1734 4.83251 20.3154 4.85059C20.4623 4.86928 20.6935 4.9188 20.916 5.08398L21.0107 5.16211L21.0879 5.23926L21.166 5.33398C21.3313 5.55652 21.3817 5.7876 21.4004 5.93457C21.4185 6.07688 21.416 6.23578 21.416 6.32031C21.416 6.51581 21.4179 6.75719 21.3916 6.96387C21.3657 7.16723 21.3029 7.44102 21.1123 7.69727L21.0225 7.80566L20.9297 7.89844C20.6444 8.15979 20.3203 8.238 20.0879 8.26758C19.8812 8.29384 19.6398 8.29199 19.4443 8.29199H15.5557C15.36 8.29199 15.118 8.2939 14.9111 8.26758C14.7077 8.24169 14.434 8.17896 14.1777 7.98828L14.0693 7.89844L13.9775 7.80566C13.7161 7.52035 13.637 7.1963 13.6074 6.96387C13.5812 6.7572 13.583 6.5158 13.583 6.32031C13.583 6.23578 13.5815 6.07688 13.5996 5.93457C13.621 5.76661 13.6827 5.48855 13.9111 5.23926L13.9883 5.16211L14.083 5.08398C14.3054 4.91879 14.5366 4.86932 14.6836 4.85059C14.8259 4.83248 14.9848 4.83398 15.0693 4.83398H19.9307Z" stroke="#132A3B" stroke-width="2"/>
<rect x="8.75" y="4.375" width="17.5" height="26.25" rx="2" stroke="#132A3B" stroke-width="2"/>
<circle cx="17.5003" cy="26.2493" r="1.45833" fill="#132A3B"/>
</svg>
