<svg width="35" height="35" viewBox="0 0 35 35" fill="none" xmlns="http://www.w3.org/2000/svg">
<path d="M17.5 2.91797V1.91797V2.91797ZM27.708 13.126H28.708H27.708ZM17.8994 26.0576L18.3497 26.9505L18.3497 26.9505L17.8994 26.0576ZM17.1006 26.0576L16.6503 26.9505L16.6503 26.9505L17.1006 26.0576ZM7.29199 13.126H6.29199H7.29199ZM17.5 2.91797V3.91797C22.5856 3.91797 26.708 8.04035 26.708 13.126H27.708H28.708C28.708 6.93579 23.6902 1.91797 17.5 1.91797V2.91797ZM27.708 13.126H26.708C26.708 16.5208 24.926 19.2745 22.8111 21.347C20.6987 23.417 18.3484 24.7112 17.4491 25.1647L17.8994 26.0576L18.3497 26.9505C19.3365 26.4528 21.8905 25.0494 24.2109 22.7754C26.5288 20.504 28.708 17.2675 28.708 13.126H27.708ZM17.8994 26.0576L17.4491 25.1647C17.4597 25.1594 17.4776 25.1538 17.5 25.1538C17.5224 25.1538 17.5403 25.1594 17.5509 25.1647L17.1006 26.0576L16.6503 26.9505C17.1878 27.2216 17.8122 27.2216 18.3497 26.9505L17.8994 26.0576ZM17.1006 26.0576L17.5509 25.1647C16.6516 24.7112 14.3013 23.417 12.1889 21.347C10.074 19.2745 8.29199 16.5208 8.29199 13.126H7.29199H6.29199C6.29199 17.2675 8.47123 20.504 10.7891 22.7754C13.1095 25.0494 15.6635 26.4528 16.6503 26.9505L17.1006 26.0576ZM7.29199 13.126H8.29199C8.29199 8.04035 12.4144 3.91797 17.5 3.91797V2.91797V1.91797C11.3098 1.91797 6.29199 6.93578 6.29199 13.126H7.29199ZM17.5 8.75098V7.75098C14.5315 7.75098 12.125 10.1574 12.125 13.126H13.125H14.125C14.125 11.262 15.636 9.75098 17.5 9.75098V8.75098ZM13.125 13.126H12.125C12.125 16.0945 14.5315 18.501 17.5 18.501V17.501V16.501C15.636 16.501 14.125 14.9899 14.125 13.126H13.125ZM17.5 17.501V18.501C20.4685 18.501 22.875 16.0945 22.875 13.126H21.875H20.875C20.875 14.9899 19.364 16.501 17.5 16.501V17.501ZM21.875 13.126H22.875C22.875 10.1574 20.4685 7.75098 17.5 7.75098V8.75098V9.75098C19.364 9.75098 20.875 11.262 20.875 13.126H21.875Z" fill="#132A3B"/>
<path d="M28.8666 25.5215C30.0185 26.1866 30.625 26.941 30.625 27.709C30.625 28.477 30.0185 29.2314 28.8666 29.8965C27.7146 30.5616 26.0578 31.1139 24.0625 31.4978C22.0672 31.8818 19.8039 32.084 17.5 32.084C15.1961 32.084 12.9328 31.8818 10.9375 31.4978C8.94225 31.1139 7.28538 30.5616 6.13342 29.8965C4.98146 29.2314 4.375 28.477 4.375 27.709C4.375 26.941 4.98146 26.1866 6.13342 25.5215" stroke="#132A3B" stroke-width="2" stroke-linecap="round"/>
</svg>
